<?xml version="1.0" encoding="utf-8"?>
<!-- Svg Vector Icons : http://www.onlinewebfonts.com/icon -->
<!DOCTYPE svg PUBLIC "-//W3C//DTD SVG 1.1//EN" "http://www.w3.org/Graphics/SVG/1.1/DTD/svg11.dtd">
<svg version="1.1" xmlns="http://www.w3.org/2000/svg" xmlns:xlink="http://www.w3.org/1999/xlink" x="0px" y="0px" viewBox="0 0 256 256" enable-background="new 0 0 256 256" xml:space="preserve">
<metadata> Svg Vector Icons : http://www.onlinewebfonts.com/icon </metadata>
<g><g><path fill="#000000" d="M79.4,171.4h105c2.1,0,4-1.1,5.2-2.8L245,81.8c1.2-1.9,1.3-4.4,0.3-6.4c-1.1-2-3.2-3.3-5.4-3.3H55.8l-14-57.4c-0.7-2.8-3.2-4.7-6-4.7H16.2c-3.4,0-6.2,2.7-6.2,6.2c0,3.4,2.7,6.2,6.2,6.2H31l35.8,146.8L42,205.1c-1.2,1.9-1.3,4.3-0.2,6.3s3.2,3.2,5.4,3.2h161.2c3.4,0,6.2-2.8,6.2-6.2c0-3.4-2.8-6.2-6.2-6.2h-150l20-28.5C79,173,79.3,172.2,79.4,171.4z M58.8,84.7h169.7l-47.4,74.2H76.9L58.8,84.7z"/><path fill="#000000" d="M66,239.7c1.7,0,3.1,1.4,3.1,3.1c0,1.7-1.4,3.1-3.1,3.1V239.7z"/><path fill="#000000" d="M165.3,239.7c1.7,0,3.1,1.4,3.1,3.1c0,1.7-1.4,3.1-3.1,3.1V239.7z"/></g></g>
</svg>